<?xml version="1.0" encoding="utf-8"?>
<!-- Generator: Adobe Illustrator 26.5.0, SVG Export Plug-In . SVG Version: 6.00 Build 0)  -->
<svg version="1.1" id="Layer_1" xmlns="http://www.w3.org/2000/svg" xmlns:xlink="http://www.w3.org/1999/xlink" x="0px" y="0px"
	 viewBox="0 0 1650.71 919.06" style="enable-background:new 0 0 1650.71 919.06;" xml:space="preserve">
<style type="text/css">
	.st0{fill:#5E17EB;}
</style>
<g>
	<path class="st0" d="M309.39,266.72c-2.94,1.8-6.12,3.12-9.57,3.95l-160.9,37.41c1.44,7.78,5.2,16.63,12.47,28.47
		c11.81-0.3,26.53,4.63,37.26,22.12c6.57,10.72,5.95,21.71,4.48,29.65c33.92,10.83,98.59-6.1,162.94-45.58
		c81.08-49.75,130.68-116.3,110.86-148.61c-4.38-7.14-22.27-36.29-39.83-64.91L317.22,260
		C314.95,262.68,312.33,264.92,309.39,266.72z"/>
	<g>
		<path class="st0" d="M461.56,14.3L196.36,76c-2.29,0.55-4.29,1.77-5.8,3.56L15.43,288.04c-2.98,3.54-3.36,8.6-0.94,12.55
			c2.42,3.94,7.1,5.9,11.61,4.85l60.8-14.14c-3.35,20.59,1.55,43.73,18.03,76.14c-5.67,8.66-6.39,20.13-0.6,29.56
			c5.89,9.6,16.66,14.23,27.14,12.87c31.16,66.88,6.53,110.65,9.8,115.99c1.67,2.72,40.23,0.57,47.11-3.65
			c10.64-6.53,25.1-40.25,1.18-79.24c-14.09-22.97-26.82-39.06-36.55-50.03c3.27-7.89,3.29-17.02-1.52-24.88
			c-5.26-8.57-14.44-12.79-23.81-12.71c-27.41-53.36-16.89-71.57,11.53-110.77c2.89-3.85,8.31-11.19,11.42-15.47
			c5.59-7.68,10.68-14.58,15.57-21.17c15.86-21.2,29.47-38.77,39.95-52.04c11.56-14.37,17.02-20.37,17.22-20.59
			c4.5-5.39,12.69-6.2,18.18-1.61c5.46,4.58,6.21,12.71,1.62,18.2c-0.35,0.42-21.6,23.58-71.62,92.41c-3.22,4.43-6.34,8.56-9.3,12.5
			c-6.02,8.01-11.06,14.57-15.03,20.49l144.11-33.54c1.13-0.29,2.19-0.71,3.18-1.32c0.99-0.61,1.84-1.36,2.61-2.26L472.24,31.69
			c2.98-3.54,3.36-8.6,0.94-12.55C470.75,15.2,466.07,13.25,461.56,14.3z"/>
		<g>
			<g>
				<path class="st0" d="M753.5,567.85c-9.35,0-18.71-2.51-28.06-7.54c-9.35-5.02-18.36-13.03-27-24.02l25.95-50.85
					c2.57,4.44,6.37,8.65,11.4,12.63c5.02,3.98,10.35,7.13,15.96,9.47c5.61,2.34,10.4,3.51,14.38,3.51c6.08,0,11.86-1.87,17.36-5.61
					c5.49-3.74,8.24-8.77,8.24-15.08c0-8.18-3.74-15.66-11.22-22.45c-7.48-6.78-15.9-13.44-25.25-19.99
					c-9.12-6.54-17.48-13.97-25.07-22.27c-7.6-8.3-11.4-17.83-11.4-28.58c0-12.15,3.51-23.44,10.52-33.84
					c7.01-10.4,16.13-19.52,27.35-27.36c11.22-7.83,23.2-13.91,35.95-18.24c12.74-4.32,24.84-6.49,36.3-6.49
					c8.18,0,15.78,1.35,22.8,4.03c7.01,2.69,12.63,7.07,16.83,13.15c4.21,6.08,6.31,14.26,6.31,24.55c0,1.64-0.06,3.28-0.18,4.91
					c-0.12,1.64-0.29,3.28-0.52,4.91c-0.24,1.64-0.53,3.33-0.88,5.09c-0.35,1.75-0.65,3.57-0.88,5.44l-50.85,14.73
					c0.47-1.87,0.88-3.74,1.23-5.61c0.35-1.87,0.53-3.74,0.53-5.61c0-7.01-1.23-12.1-3.68-15.26c-2.45-3.16-5.67-4.73-9.64-4.73
					c-2.1,0-5.15,1.11-9.12,3.33c-3.98,2.22-7.54,5.26-10.7,9.12c-3.16,3.86-4.74,8.13-4.74,12.8c0,7.72,3.21,14.09,9.64,19.11
					c6.43,5.03,13.85,10.12,22.27,15.26c3.97,2.34,8.42,6.02,13.33,11.05c4.91,5.03,9.17,11.81,12.8,20.34
					c3.62,8.54,5.44,19.46,5.44,32.79c0,17.31-4.27,32.5-12.8,45.59c-8.54,13.1-20.05,23.32-34.54,30.69
					C787.05,564.17,771.03,567.85,753.5,567.85z"/>
			</g>
			<g>
				<path class="st0" d="M846.79,567.5c3.51-16.36,6.89-32.5,10.17-48.4c3.27-15.9,6.43-31.56,9.47-47
					c4.91-27.82,9.7-55.35,14.38-82.59c4.68-27.23,8.07-53.25,10.17-78.03l18.24,1.05c3.27,0.24,6.49,0.47,9.64,0.7
					c3.16,0.24,6.26,0.47,9.3,0.7c3.51,0.24,7.01,0.41,10.52,0.53c3.51,0.12,7.01,0.18,10.52,0.18c-0.47,1.87-1.23,5.61-2.28,11.22
					c-1.05,5.61-2.1,11.28-3.15,17.01c-1.06,5.73-1.82,9.64-2.28,11.75l-6.31,34.72l2.1-0.35c6.78-10.52,14.61-22.68,23.5-36.47
					c8.88-13.79,17.18-27,24.9-39.63c11.69-0.93,23.38-1.98,35.07-3.16c11.69-1.17,23.38-2.68,35.07-4.56
					c-5.38,7.25-10.76,14.5-16.13,21.74c-5.38,7.25-10.64,14.5-15.78,21.74c-5.38,7.49-11.22,15.67-17.54,24.55
					c-6.31,8.89-12.33,17.6-18.06,26.13c-5.73,8.54-10.47,15.84-14.2,21.92c2.57,11.69,5.37,23.27,8.41,34.72
					c3.04,11.46,6.32,22.68,9.82,33.67c3.5,10.99,7.01,22.09,10.52,33.32c3.51,11.22,7.13,22.57,10.88,34.02
					c-5.38-0.23-10.88-0.41-16.48-0.53c-5.61-0.12-11.11-0.18-16.48-0.18c-6.78,0-13.33,0.06-19.64,0.18
					c-6.31,0.12-12.86,0.29-19.64,0.53c-0.94-7.48-1.99-15.26-3.16-23.32c-1.17-8.07-2.34-16.31-3.5-24.72
					c-1.17-8.18-2.34-16.31-3.51-24.37c-1.17-8.07-2.34-15.84-3.51-23.32l-6.32,7.37c-1.64,6.78-3.39,15.43-5.26,25.95
					c-0.93,5.15-1.93,10.23-2.98,15.26c-1.05,5.03-2.05,9.88-2.98,14.55c-0.94,5.61-1.99,11.28-3.16,17.01
					c-1.17,5.73-2.34,11.63-3.51,17.71L846.79,567.5z"/>
				<path class="st0" d="M1008.11,566.8c3.27-13.56,6.54-28.93,9.82-46.12c3.27-17.18,6.54-35.01,9.82-53.48
					c3.27-18.47,6.31-36.24,9.12-53.31c2.57-14.96,5.08-30.16,7.54-45.59c2.46-15.43,4.85-30.98,7.19-46.64l54.71-8.77l-15.78,92.24
					c-3.51,21.74-6.61,41.27-9.29,58.57c-2.69,17.31-5.26,33.67-7.71,49.1c-2.46,15.43-4.97,31.21-7.54,47.34
					c-4.45,0-9.82,0.3-16.13,0.88c-6.31,0.59-12.62,1.29-18.94,2.1c-6.31,0.82-11.63,1.58-15.96,2.28
					C1010.62,566.1,1008.34,566.57,1008.11,566.8z"/>
			</g>
			<g>
				<path class="st0" d="M1081.41,567.85c2.57-18.47,5.31-37.05,8.24-55.76c2.92-18.7,5.96-36.76,9.12-54.18
					c3.16-17.41,6.14-33.14,8.94-47.17c3.04-15.2,6.08-30.63,9.12-46.29c3.04-15.66,6.19-31.44,9.47-47.35l61.37-8.07l-18.24,79.26
					c-3.28,13.8-6.61,28.58-9.99,44.36c-3.39,15.78-6.49,31.04-9.29,45.77c-2.8,14.73-5.03,27.83-6.66,39.28
					c5.84-0.47,12.1-0.76,18.76-0.88c6.66-0.11,12.56-0.17,17.71-0.17c0.23,5.38,0.7,11.05,1.4,17.01
					c0.7,5.96,1.46,11.11,2.28,15.43c0.82,4.33,1.23,6.72,1.23,7.19c-0.94,0-1.81,0-2.63,0c-0.82,0-1.7-0.12-2.63-0.35h-5.61
					c-9.12,0-19.23,0.41-30.34,1.23c-11.11,0.82-22.09,2.1-32.96,3.86C1099.82,562.77,1090.05,565.05,1081.41,567.85z"/>
			</g>
			<g>
				<path class="st0" d="M1187.32,567.85c2.57-18.47,5.31-37.05,8.24-55.76c2.92-18.7,5.96-36.76,9.12-54.18
					c3.16-17.41,6.14-33.14,8.94-47.17c3.04-15.2,6.08-30.63,9.12-46.29c3.04-15.66,6.19-31.44,9.47-47.35l61.37-8.07l-18.24,79.26
					c-3.28,13.8-6.61,28.58-9.99,44.36c-3.39,15.78-6.49,31.04-9.29,45.77c-2.8,14.73-5.03,27.83-6.66,39.28
					c5.84-0.47,12.1-0.76,18.76-0.88c6.66-0.11,12.56-0.17,17.71-0.17c0.23,5.38,0.7,11.05,1.4,17.01
					c0.7,5.96,1.46,11.11,2.28,15.43c0.82,4.33,1.23,6.72,1.23,7.19c-0.94,0-1.81,0-2.63,0c-0.82,0-1.7-0.12-2.63-0.35h-5.61
					c-9.12,0-19.23,0.41-30.34,1.23c-11.11,0.82-22.09,2.1-32.96,3.86C1205.73,562.77,1195.97,565.05,1187.32,567.85z"/>
			</g>
			<g>
			</g>
			<g>
				<path class="st0" d="M748.42,908.44c-8.65,0-16.9-1.87-24.72-5.61c-7.84-3.74-14.55-9.47-20.17-17.18
					c-5.85-7.48-10.41-16.95-13.68-28.41c-3.28-11.45-4.91-24.9-4.91-40.33c0-30.16,4.32-56.46,12.98-78.91
					c8.65-22.45,19.64-41.15,32.97-56.11c13.09-14.96,27.18-26.07,42.26-33.32c15.08-7.24,29.16-10.87,42.26-10.87
					c12.63,0,22.91,2.75,30.86,8.24c7.95,5.5,13.79,12.8,17.53,21.92c3.74,9.12,5.61,19.29,5.61,30.51l-48.04,9.12
					c-2.1-9.35-4.91-16.01-8.42-19.99c-3.51-3.97-7.48-5.96-11.92-5.96c-5.15,0-10.47,2.81-15.96,8.42
					c-5.5,5.61-10.87,13.15-16.13,22.62c-5.26,9.47-9.99,20.05-14.2,31.74c-4.21,11.69-7.66,23.73-10.35,36.12
					c-2.69,12.4-4.27,24.08-4.73,35.07c0,14.5,2.16,24.85,6.49,31.04c4.32,6.2,9.87,9.29,16.66,9.29c6.54,0,13.03-2.1,19.46-6.31
					c6.43-4.21,11.8-9.87,16.13-17.01c4.32-7.13,6.6-15.14,6.84-24.02l-37.52,5.61l6.66-34.72l32.26-4.21
					c8.88-1.17,18.29-2.57,28.23-4.21c9.93-1.63,18.64-3.16,26.13-4.56c-1.64,23.85-6.26,44.71-13.85,62.6
					c-7.6,17.89-17.01,32.68-28.23,44.36c-11.22,11.69-22.97,20.46-35.25,26.3C771.39,905.51,759.65,908.44,748.42,908.44z"/>
			</g>
			<g>
				<path class="st0" d="M936.05,899.32c0.47-3.97,0.93-7.83,1.4-11.57c0.47-3.74,0.93-7.48,1.4-11.22l2.1-19.64
					c0.23-3.27,0.47-6.31,0.7-9.12c0.23-2.81,0.47-5.38,0.7-7.72h-30.51l-14.03,50.5c-5.15,0.7-11.22,1.46-18.24,2.28
					c-7.01,0.82-13.56,1.58-19.64,2.28c-3.74,0.47-7.43,0.94-11.05,1.4c-3.63,0.47-7.31,0.94-11.05,1.4l27.71-91.88
					c3.27-10.99,7.01-23.5,11.22-37.53c4.21-14.03,8.47-28.41,12.8-43.14c4.33-14.73,8.42-28.58,12.28-41.56
					c3.86-12.98,6.95-23.9,9.29-32.79c15.9-1.17,32.09-2.57,48.57-4.21c16.48-1.63,32.55-3.86,48.22-6.66
					c-1.17,13.1-2.28,27.88-3.33,44.36c-1.05,16.48-1.99,33.49-2.8,51.03c-0.82,17.54-1.7,34.84-2.63,51.9
					c-0.47,16.13-1.05,32.79-1.75,49.98c-0.7,17.18-1.4,34.78-2.1,52.78c-3.51,0.47-7.01,0.94-10.52,1.4
					c-3.5,0.47-7.01,0.94-10.52,1.4c-5.85,0.94-12.28,1.99-19.29,3.16C947.97,897.34,941.66,898.39,936.05,899.32z M920.27,804.98
					c1.4,0,4.03-0.11,7.89-0.35c3.86-0.23,7.54-0.47,11.05-0.7c3.51-0.23,5.61-0.35,6.31-0.35c0-3.04,0.46-9.23,1.4-18.59
					c0.93-9.35,1.87-19.17,2.8-29.46c0.47-6.08,0.99-12.33,1.58-18.76c0.58-6.43,1.23-13.03,1.93-19.82l2.1-30.51l-5.26,0.35
					l-8.07,30.16L920.27,804.98z"/>
			</g>
			<g>
				<path class="st0" d="M998.47,900.37l18.24-91.18c2.81-16.83,5.84-34.13,9.12-51.9c3.27-17.77,6.37-35.3,9.29-52.61
					c2.92-17.3,5.2-33.55,6.84-48.75c13.33-4.21,27.71-7.31,43.14-9.29c15.43-1.98,30.74-2.98,45.94-2.98
					c17.76,0,29.87,3.86,36.3,11.57c6.43,7.72,9.64,18.12,9.64,31.21c0,11.92-2.81,23.91-8.42,35.95
					c-5.61,12.04-12.92,22.92-21.92,32.61c-9,9.71-18.88,17.36-29.63,22.97c4.21,9.35,8.71,19.58,13.5,30.69
					c4.79,11.11,9.29,21.69,13.5,31.74c2.34,5.85,4.74,11.69,7.19,17.54c2.46,5.85,4.85,11.69,7.19,17.53l-54.36,18.94l-12.63-42.09
					c-3.51-11.69-6.72-22.97-9.64-33.84c-2.93-10.87-4.62-18.53-5.08-22.97l-4.56,1.4c-0.7,3.74-1.46,7.78-2.28,12.1
					c-0.82,4.33-1.7,9.06-2.63,14.2c-0.94,5.15-1.87,10.12-2.81,14.9c-0.94,4.8-1.87,9.53-2.8,14.2l-6.31,33.32L998.47,900.37z
					 M1080.89,748.17c4.21-0.47,9.41-2.28,15.61-5.44c6.19-3.16,12.39-7.07,18.59-11.75c6.19-4.67,11.4-9.47,15.61-14.38
					s6.31-9.23,6.31-12.98c0-4.67-2.75-7.77-8.24-9.29c-5.5-1.52-12.69-2.28-21.57-2.28h-7.72c-1.4,0.24-2.69,0.35-3.86,0.35
					c-1.17,0-2.34,0-3.51,0L1080.89,748.17z"/>
				<path class="st0" d="M1243.61,899.32c0.47-3.97,0.93-7.83,1.4-11.57c0.47-3.74,0.93-7.48,1.4-11.22l2.1-19.64
					c0.23-3.27,0.47-6.31,0.7-9.12c0.23-2.81,0.47-5.38,0.7-7.72h-30.51l-14.03,50.5c-5.15,0.7-11.22,1.46-18.24,2.28
					c-7.01,0.82-13.56,1.58-19.64,2.28c-3.74,0.47-7.42,0.94-11.05,1.4c-3.63,0.47-7.3,0.94-11.05,1.4l27.71-91.88
					c3.27-10.99,7.01-23.5,11.22-37.53c4.21-14.03,8.47-28.41,12.8-43.14c4.33-14.73,8.42-28.58,12.28-41.56
					c3.86-12.98,6.95-23.9,9.29-32.79c15.9-1.17,32.09-2.57,48.57-4.21c16.48-1.63,32.55-3.86,48.22-6.66
					c-1.17,13.1-2.28,27.88-3.33,44.36c-1.05,16.48-1.99,33.49-2.8,51.03c-0.82,17.54-1.7,34.84-2.63,51.9
					c-0.47,16.13-1.05,32.79-1.75,49.98c-0.7,17.18-1.4,34.78-2.1,52.78c-3.51,0.47-7.01,0.94-10.52,1.4
					c-3.5,0.47-7.01,0.94-10.52,1.4c-5.85,0.94-12.28,1.99-19.29,3.16C1255.54,897.34,1249.22,898.39,1243.61,899.32z
					 M1227.83,804.98c1.4,0,4.03-0.11,7.89-0.35c3.86-0.23,7.54-0.47,11.05-0.7c3.51-0.23,5.61-0.35,6.31-0.35
					c0-3.04,0.46-9.23,1.4-18.59c0.93-9.35,1.87-19.17,2.8-29.46c0.47-6.08,0.99-12.33,1.58-18.76c0.58-6.43,1.23-13.03,1.93-19.82
					l2.1-30.51l-5.26,0.35l-8.07,30.16L1227.83,804.98z"/>
			</g>
			<g>
				<path class="st0" d="M1382.85,908.44c-8.65,0-16.9-1.87-24.72-5.61c-7.84-3.74-14.55-9.47-20.17-17.18
					c-5.85-7.48-10.41-16.95-13.68-28.41c-3.28-11.45-4.91-24.9-4.91-40.33c0-30.16,4.32-56.46,12.98-78.91
					c8.65-22.45,19.64-41.15,32.96-56.11c13.09-14.96,27.18-26.07,42.26-33.32c15.08-7.24,29.16-10.87,42.26-10.87
					c12.63,0,22.91,2.75,30.86,8.24c7.95,5.5,13.79,12.8,17.54,21.92c3.74,9.12,5.61,19.29,5.61,30.51l-48.04,9.12
					c-2.1-9.35-4.91-16.01-8.42-19.99c-3.51-3.97-7.49-5.96-11.92-5.96c-5.15,0-10.47,2.81-15.96,8.42
					c-5.5,5.61-10.87,13.15-16.13,22.62c-5.26,9.47-9.99,20.05-14.2,31.74c-4.21,11.69-7.66,23.73-10.34,36.12
					c-2.69,12.4-4.27,24.08-4.74,35.07c0,14.5,2.16,24.85,6.49,31.04c4.32,6.2,9.87,9.29,16.66,9.29c6.54,0,13.03-2.1,19.46-6.31
					c6.43-4.21,11.8-9.87,16.13-17.01c4.32-7.13,6.6-15.14,6.84-24.02l-37.53,5.61l6.66-34.72l32.26-4.21
					c8.88-1.17,18.29-2.57,28.23-4.21c9.93-1.63,18.64-3.16,26.13-4.56c-1.64,23.85-6.26,44.71-13.85,62.6
					c-7.6,17.89-17.01,32.68-28.23,44.36c-11.22,11.69-22.97,20.46-35.25,26.3C1405.82,905.51,1394.07,908.44,1382.85,908.44z"/>
				<path class="st0" d="M1482.44,900.37l45.94-249.35l110.82-9.47c-1.64,5.15-3.04,10.41-4.21,15.78
					c-1.17,4.44-2.28,9.06-3.33,13.85c-1.05,4.79-1.93,9.06-2.63,12.8c-3.04,0.24-7.37,0.41-12.98,0.53
					c-5.61,0.12-11.34,0.24-17.18,0.35c-5.85,0.12-10.87,0.18-15.08,0.18c-4.21,0-6.43,0-6.66,0l-12.27,62.78l20.34-1.05
					c2.57-0.23,5.2-0.35,7.89-0.35c2.69,0,5.32,0,7.89,0c2.57,0,4.91,0,7.01,0s3.74-0.12,4.91-0.35c-0.47,3.28-0.88,6.49-1.23,9.64
					c-0.35,3.16-0.76,6.37-1.23,9.64l-3.16,19.29c-1.17,0.24-2.69,0.35-4.56,0.35c-1.87,0-4.09,0-6.66,0
					c-2.57,0.24-5.26,0.35-8.07,0.35c-2.8,0-5.5,0.12-8.07,0.35c-3.04,0.24-6.2,0.35-9.47,0.35c-3.28,0-6.78,0.12-10.52,0.35
					l-11.92,64.53l51.2-8.07l-3.51,39.98L1482.44,900.37z"/>
			</g>
			<g>
				<path class="st0" d="M434.37,779.04c44.94,16.18,79.99,3.6,79.99-34.15c0-23.37-10.79-39.54-27.86-52.13
					c-17.08-13.48-43.14-28.76-59.32-38.65l-17.98-10.79c-0.9,0-0.9-0.9-1.8-0.9c-7.19-3.59-25.17-17.97-53.03-41.34
					c0,0-0.9,0-0.9-0.9c-16.18-15.28-26.96-34.15-33.25-60.22c-12.58-54.82-3.6-107.85,26.96-159.08
					c29.66-52.13,77.29-82.69,143.8-90.78c58.42-7.19,128.52-4.49,168.97,45.84c15.28,18.87,21.57,44.94,23.37,69.2
					c0.9,7.19,1.8,17.98,1.8,32.36c0,18.87-0.9,35.05-1.8,49.43c0,11.68-6.29,17.08-17.97,17.08H561.09
					c-11.68,0-17.97-6.29-17.97-17.98c0-19.77-0.9-41.34-2.7-63.81c-1.8-9.89-5.39-16.18-12.58-17.08h-0.9
					c-17.08-2.7-29.66,5.39-36.85,23.37c-16.18,33.25-8.99,64.71,16.18,87.18c11.68,11.68,24.27,20.67,35.95,27.86l27.86,17.08
					c69.2,42.24,119.53,101.56,110.55,186.94v0.9c-12.58,65.61-44.94,118.64-101.56,141.11c-44.04,17.08-89.88,19.77-135.71,15.28
					c-50.33-5.39-107.85-32.36-150.99-55.72c-8.99-5.39-12.58-13.48-7.19-24.27l39.54-79.09c3.6-8.99,15.28-13.48,25.17-8.09
					C376.85,753.87,405.61,768.25,434.37,779.04z M429.87,786.23h-5.39v2.7h5.39V786.23z M441.56,812.29l-2.7,2.7l3.6,1.8l2.7-3.59
					L441.56,812.29z M470.32,841.95h-6.29v2.7h6.29V841.95z M531.43,611.87h-8.09v3.59h8.09V611.87z M547.61,651.41l-1.8-0.9
					l-1.8-1.8v6.29h1.8l1.8,0.9c0.9,0,1.8-0.9,1.8-0.9C549.41,653.21,549.41,653.21,547.61,651.41z M549.41,823.98h-3.6v4.49h3.6
					V823.98z M558.4,811.39c-0.9,0-1.8,0-1.8,0.9v0.9c-0.9,0-1.8,0-1.8,0.9c0,0,0,0.9-1.8,0.9c1.8,0.9,4.49,1.8,7.19,1.8
					C560.19,814.09,560.19,812.29,558.4,811.39z M561.99,615.46c0,0,0-0.9,0.9-1.8c0-0.9,0.9-1.8-0.9-4.49h-5.39
					c-2.7,5.39,0,9.89,0,10.79h7.19C563.79,618.16,562.89,616.36,561.99,615.46z M565.59,619.96c-1.8,0-3.59,0-5.39,0.9
					c0,0.9,1.8,2.7,3.6,5.39c0.9,0,2.7-1.8,7.19-3.6v-0.9c0.9,0,0.9-0.9,1.8-0.9c-1.8,0-2.7-0.9-3.6-0.9H565.59z M569.18,841.95
					h-7.19c-1.8,0-1.8,0.9-1.8,2.7c0,0.9,0,1.8,1.8,2.7L569.18,841.95z M563.79,822.18l-1.8,5.39c2.7,0,3.59,0,3.59,0.9
					c4.49,0,7.19-0.9,7.19-4.49c-1.8,0-3.6-0.9-4.49-0.9C567.38,822.18,565.59,822.18,563.79,822.18z M582.66,457.28
					c-2.7,0-4.49,0.9-4.49,3.6h4.49c0.9,0,0.9-0.9,0.9-1.8S582.66,457.28,582.66,457.28z M583.56,394.37v-1.8h-3.59v1.8H583.56z
					 M590.75,677.48l-8.09-0.9v2.7l8.09,1.8V677.48z M588.06,798.81c0-0.9-0.9-0.9-0.9-1.8c0,0,0-0.9-1.8-0.9
					c-0.9,0.9-1.8,1.8-1.8,3.6v3.6c0.9,0,1.8,0,1.8-0.9h1.8l1.8-1.8C588.95,799.71,588.06,799.71,588.06,798.81z M606.93,770.95
					h-8.99c1.8-1.8,0.9-0.9-3.59,1.8c-0.9,0.9-1.8,0.9-3.59,0.9c-3.6,1.8-5.39,3.6-5.39,5.39v1.8c1.8,1.8,3.59,1.8,7.19,1.8h3.59
					l6.29-3.6c2.7-1.8,4.49-3.59,4.49-4.49V770.95z M590.75,695.45l-2.7,2.7l3.6,1.8l2.7-3.59L590.75,695.45z M609.63,754.77
					c-0.9,0.9-1.8,1.8-1.8,2.7l-1.8,0.9c-0.9,0.9-1.8,0.9-2.7,0.9h-0.9c-0.9,0-2.7,0-4.49-0.9c-2.7-0.9-5.39-0.9-7.19-0.9h-2.7v3.6
					l0.9,0.9c0,0.9,0.9,1.8,1.8,2.7c8.99,0.9,12.58,1.8,11.68,1.8h2.7c1.8,1.8,3.59,1.8,4.49,1.8h2.7l1.8-0.9h1.8v-1.8
					c0.9-0.9,0.9-1.8,0.9-2.7C616.82,761.06,614.12,759.27,609.63,754.77z M597.94,663.1l-3.59-3.59c-3.59,1.8-5.39,3.59-5.39,6.29
					h5.39l1.8-0.9h1.8V663.1z M605.13,721.52c-1.8-0.9-2.7-1.8-3.6-1.8h-3.6l-1.8,6.29c0.9,0.9,1.8,0.9,1.8,0.9h0.9l0.9,0.9h6.29
					c0-0.9,0-0.9,0.9-0.9v-1.8c0.9,0,0.9-0.9,0.9-1.8C606.03,723.32,605.13,722.42,605.13,721.52z M607.83,788.03v-3.59
					c0-1.8,0-2.7-0.9-2.7h-5.39l-3.6,2.7v3.59C601.54,788.93,604.23,788.93,607.83,788.03z M607.83,813.19v-1.8l-9.89,1.8
					c5.39,1.8,8.09,2.7,10.79,2.7C608.73,814.99,608.73,814.09,607.83,813.19z M605.13,421.33c0,0-0.9,0-1.8-0.9c0,0-0.9,0-0.9-0.9
					c0,0.9-0.9,1.8-0.9,1.8s0,0.9-0.9,0.9c-0.9,2.7,1.8,2.7,2.7,0.9L605.13,421.33z M621.31,735.9l-0.9-4.49c-1.8,0-2.7,0-3.6,0.9
					l-1.8,0.9c-4.49,0-7.19,0.9-8.09,0.9c-0.9,4.49,3.59,6.29,7.19,6.29l3.59-1.8L621.31,735.9z M632.09,696.35l-0.9-0.9
					c-0.9,0-0.9,0-0.9-0.9h-8.09l-1.8,4.49c0.9,2.7,3.59,4.49,7.19,4.49c3.59,0,5.39-1.8,5.39-5.39
					C632.99,696.35,632.99,696.35,632.09,696.35z M628.5,778.14c-3.6,0.9-4.49,2.7-4.49,6.29c0,0.9,0.9,3.59,3.6,7.19l3.59-2.7
					c2.7,0,4.49-1.8,4.49-4.49c0-0.9-0.9-1.8-2.7-3.6C631.2,779.94,629.4,779.04,628.5,778.14z M631.2,764.66h-4.49v5.39h4.49
					V764.66z M638.39,758.37h-6.29c0,1.8-0.9,3.6-2.7,5.39h7.19v-1.8C637.49,760.17,638.39,759.27,638.39,758.37z M640.18,723.32
					h-3.59c-0.9,0.9-1.8,1.8-0.9,3.6v3.59c1.8,0,2.7-0.9,4.49-2.7c0.9,0,0.9-0.9,1.8-0.9c0,0,0.9,0,2.7-1.8
					c-1.8-0.9-2.7-0.9-2.7-0.9C641.08,724.21,640.18,723.32,640.18,723.32z"/>
			</g>
		</g>
	</g>
</g>
</svg>
